name IK_average_walking_HGC.mot																															
datacolumns 32																															
datarows 11																															
range 0 0.10552876																															
endheader																															
time	pelvis_tilt	pelvis_list	pelvis_rotation	pelvis_tx	pelvis_ty	pelvis_tz	hip_flexion_l	hip_adduction_l	hip_rotation_l	hip_flexion_r	hip_adduction_r	hip_rotation_r	knee_angle_l	knee_angle_r	ankle_angle_l	ankle_angle_r	subtalar_angle_l	subtalar_angle_r	mtp_angle_l	mtp_angle_r	lumbar_extension	lumbar_bending	lumbar_rotation	arm_flex_l	arm_add_l	arm_rot_l	arm_flex_r	arm_add_r	arm_rot_r	elbow_flex_l	elbow_flex_r
0	0.88440727	2.74671358	3.4090928	0	0.89975485	-0.07161432	-16.58230505	5.57548561	1.371585	28.2104372	-1.4624109	-6.56559245	-13.84273163	-12.34706655	13.54328005	3.19082961	9.34292224	3.4005656	0	0	-8.03758962	-2.98943861	-7.72879281	4.95448417	-21.63882167	14.97709757	-7.35864714	-13.48451726	17.46593169	36.26777389	10.30501123
0.01055288	0.85903709	2.61484762	3.52745585	0.01551486	0.8981214	-0.07116632	-17.03159231	5.2078093	1.14607008	28.32415706	-1.19286054	-6.54670963	-14.78793448	-13.03249276	13.01877541	2.6432962	9.93071362	3.1527451	0	0	-7.82858831	-2.78453954	-7.82623837	4.70388542	-21.58194729	14.73083011	-7.50307127	-13.44172142	17.80586633	36.40056483	9.96392469
0.02110575	0.81818196	2.41030586	3.61387368	0.03129716	0.89658688	-0.07067218	-17.36077002	4.75988695	0.84942909	28.43196196	-0.82124797	-6.38565946	-15.89921677	-14.03560614	12.26070104	1.860453	10.52407847	2.54349759	0	0	-7.56372099	-2.4915383	-7.87042696	4.37168015	-21.47873686	14.46097551	-7.65370932	-13.42868148	18.14309226	36.48498786	9.66258985
0.03165863	0.76086138	2.12441329	3.66095985	0.04730355	0.89517772	-0.07012593	-17.55547231	4.22666488	0.48788807	28.53423022	-0.34047459	-6.09422206	-17.18539678	-15.27886104	11.2200537	0.87053316	11.0959907	1.62237756	0	0	-7.24670065	-2.10130869	-7.85296276	3.96785624	-21.32599582	14.17074709	-7.80563293	-13.44687938	18.46601701	36.51310459	9.40286879
0.0422115	0.68775717	1.75117976	3.66351225	0.06347461	0.89392904	-0.06952292	-17.59944646	3.6058995	0.07379957	28.63163623	0.25178597	-5.69264042	-18.65895937	-16.68846102	9.85260596	-0.27307991	11.61525953	0.46006278	0	0	-6.88581721	-1.60814263	-7.76882046	3.50519473	-21.12218612	13.86527739	-7.95101589	-13.49684587	18.76261247	36.47690105	9.1872366
0.05276438	0.60147657	1.28973641	3.62033357	0.07973918	0.89287787	-0.06886378	-17.47778717	2.90004002	-0.37345066	28.72227748	0.95081627	-5.20796753	-20.3324723	-18.1983755	8.13020831	-1.49441209	12.04869606	-0.85937322	0	0	-6.49404202	-1.01235151	-7.61840845	2.9986183	-20.86836949	13.5515538	-8.0799503	-13.57781273	19.02139692	36.369811	9.01872605
0.06331725	0.50575806	0.74367879	3.53438875	0.09602329	0.89205853	-0.06815532	-17.17536735	2.1154439	-0.82912078	28.79937639	1.74650477	-4.67125087	-22.21999536	-19.75185917	6.04329726	-2.70424346	12.36222446	-2.24741026	0	0	-6.08687435	-0.31941123	-7.40716305	2.46318245	-20.56784867	13.23864244	-8.18180753	-13.68825722	19.23160405	36.18637912	8.90186204
0.07387013	0.405146	0.12225146	3.41326172	0.11225313	0.89149429	-0.06741163	-16.6786839	1.26360607	-1.26348801	28.85019235	2.62253796	-4.11657353	-24.33382831	-21.29904934	3.60897143	-3.80760594	12.5219791	-3.61645532	0	0	-5.68147046	0.45891904	-7.14554297	1.91406531	-20.22646141	12.9380052	-8.24626409	-13.82578613	19.38370823	35.92276814	8.84252345
0.08442301	0.30453399	-0.5594621	3.26904159	0.1283594	0.89119205	-0.06665303	-15.97826792	0.36158158	-1.64419102	28.8565832	3.55662828	-3.57929794	-26.68046295	-22.79478386	0.87771456	-4.71492732	12.49816668	-4.88563955	0	0	-5.29509181	1.30449324	-6.84812698	1.36635312	-19.85264247	12.66344326	-8.26494958	-13.98715179	19.47052517	35.57740372	8.84763163
0.09497588	0.20876353	-1.28187829	3.11714267	0.14427854	0.89114636	-0.06590412	-15.06809358	-0.56857215	-1.93838276	28.79657205	4.52179449	-3.09404175	-29.25959932	-24.197181	-2.06792505	-5.35131286	12.26538135	-5.98630926	0	0	-4.94384015	2.19425628	-6.53142354	0.83485143	-19.45662436	12.43086765	-8.23192785	-14.16849151	19.48700984	35.15046555	8.92494205
0.10552876	0.1220654	-2.0221982	2.97510373	0.1599567	0.89134196	-0.06519181	-13.9487859	-1.50042242	-2.11653598	28.64799594	5.48754743	-2.69222925	-32.05852359	-25.4686719	-5.11388846	-5.66855554	11.80747136	-6.86709544	0	0	-4.64085064	3.10165278	-6.21201516	0.33394241	-19.04982169	12.25743441	-8.14458788	-14.36526404	19.43168143	34.64385192	9.08142957
